<svg id="container" width="1715.453125" xmlns="http://www.w3.org/2000/svg" class="flowchart" height="722.0462036132812" viewBox="0 0 1715.453125 722.0462036132812" role="graphics-document document" aria-roledescription="flowchart-v2"><style>#container{font-family:"trebuchet ms",verdana,arial,sans-serif;font-size:16px;fill:#333;}@keyframes edge-animation-frame{from{stroke-dashoffset:0;}}@keyframes dash{to{stroke-dashoffset:0;}}#container .edge-animation-slow{stroke-dasharray:9,5!important;stroke-dashoffset:900;animation:dash 50s linear infinite;stroke-linecap:round;}#container .edge-animation-fast{stroke-dasharray:9,5!important;stroke-dashoffset:900;animation:dash 20s linear infinite;stroke-linecap:round;}#container .error-icon{fill:#552222;}#container .error-text{fill:#552222;stroke:#552222;}#container .edge-thickness-normal{stroke-width:1px;}#container .edge-thickness-thick{stroke-width:3.5px;}#container .edge-pattern-solid{stroke-dasharray:0;}#container .edge-thickness-invisible{stroke-width:0;fill:none;}#container .edge-pattern-dashed{stroke-dasharray:3;}#container .edge-pattern-dotted{stroke-dasharray:2;}#container .marker{fill:#333333;stroke:#333333;}#container .marker.cross{stroke:#333333;}#container svg{font-family:"trebuchet ms",verdana,arial,sans-serif;font-size:16px;}#container p{margin:0;}#container .label{font-family:"trebuchet ms",verdana,arial,sans-serif;color:#333;}#container .cluster-label text{fill:#333;}#container .cluster-label span{color:#333;}#container .cluster-label span p{background-color:transparent;}#container .label text,#container span{fill:#333;color:#333;}#container .node rect,#container .node circle,#container .node ellipse,#container .node polygon,#container .node path{fill:#ECECFF;stroke:#9370DB;stroke-width:1px;}#container .rough-node .label text,#container .node .label text,#container .image-shape .label,#container .icon-shape .label{text-anchor:middle;}#container .node .katex path{fill:#000;stroke:#000;stroke-width:1px;}#container .rough-node .label,#container .node .label,#container .image-shape .label,#container .icon-shape .label{text-align:center;}#container .node.clickable{cursor:pointer;}#container .root .anchor path{fill:#333333!important;stroke-width:0;stroke:#333333;}#container .arrowheadPath{fill:#333333;}#container .edgePath .path{stroke:#333333;stroke-width:2.0px;}#container .flowchart-link{stroke:#333333;fill:none;}#container .edgeLabel{background-color:rgba(232,232,232, 0.8);text-align:center;}#container .edgeLabel p{background-color:rgba(232,232,232, 0.8);}#container .edgeLabel rect{opacity:0.5;background-color:rgba(232,232,232, 0.8);fill:rgba(232,232,232, 0.8);}#container .labelBkg{background-color:rgba(232, 232, 232, 0.5);}#container .cluster rect{fill:#ffffde;stroke:#aaaa33;stroke-width:1px;}#container .cluster text{fill:#333;}#container .cluster span{color:#333;}#container div.mermaidTooltip{position:absolute;text-align:center;max-width:200px;padding:2px;font-family:"trebuchet ms",verdana,arial,sans-serif;font-size:12px;background:hsl(80, 100%, 96.2745098039%);border:1px solid #aaaa33;border-radius:2px;pointer-events:none;z-index:100;}#container .flowchartTitleText{text-anchor:middle;font-size:18px;fill:#333;}#container rect.text{fill:none;stroke-width:0;}#container .icon-shape,#container .image-shape{background-color:rgba(232,232,232, 0.8);text-align:center;}#container .icon-shape p,#container .image-shape p{background-color:rgba(232,232,232, 0.8);padding:2px;}#container .icon-shape rect,#container .image-shape rect{opacity:0.5;background-color:rgba(232,232,232, 0.8);fill:rgba(232,232,232, 0.8);}#container .label-icon{display:inline-block;height:1em;overflow:visible;vertical-align:-0.125em;}#container .node .label-icon path{fill:currentColor;stroke:revert;stroke-width:revert;}#container :root{--mermaid-font-family:"trebuchet ms",verdana,arial,sans-serif;}</style><g><marker id="container_flowchart-v2-pointEnd" class="marker flowchart-v2" viewBox="0 0 10 10" refX="5" refY="5" markerUnits="userSpaceOnUse" markerWidth="8" markerHeight="8" orient="auto"><path d="M 0 0 L 10 5 L 0 10 z" class="arrowMarkerPath" style="stroke-width: 1; stroke-dasharray: 1, 0;"></path></marker><marker id="container_flowchart-v2-pointStart" class="marker flowchart-v2" viewBox="0 0 10 10" refX="4.5" refY="5" markerUnits="userSpaceOnUse" markerWidth="8" markerHeight="8" orient="auto"><path d="M 0 5 L 10 10 L 10 0 z" class="arrowMarkerPath" style="stroke-width: 1; stroke-dasharray: 1, 0;"></path></marker><marker id="container_flowchart-v2-circleEnd" class="marker flowchart-v2" viewBox="0 0 10 10" refX="11" refY="5" markerUnits="userSpaceOnUse" markerWidth="11" markerHeight="11" orient="auto"><circle cx="5" cy="5" r="5" class="arrowMarkerPath" style="stroke-width: 1; stroke-dasharray: 1, 0;"></circle></marker><marker id="container_flowchart-v2-circleStart" class="marker flowchart-v2" viewBox="0 0 10 10" refX="-1" refY="5" markerUnits="userSpaceOnUse" markerWidth="11" markerHeight="11" orient="auto"><circle cx="5" cy="5" r="5" class="arrowMarkerPath" style="stroke-width: 1; stroke-dasharray: 1, 0;"></circle></marker><marker id="container_flowchart-v2-crossEnd" class="marker cross flowchart-v2" viewBox="0 0 11 11" refX="12" refY="5.2" markerUnits="userSpaceOnUse" markerWidth="11" markerHeight="11" orient="auto"><path d="M 1,1 l 9,9 M 10,1 l -9,9" class="arrowMarkerPath" style="stroke-width: 2; stroke-dasharray: 1, 0;"></path></marker><marker id="container_flowchart-v2-crossStart" class="marker cross flowchart-v2" viewBox="0 0 11 11" refX="-1" refY="5.2" markerUnits="userSpaceOnUse" markerWidth="11" markerHeight="11" orient="auto"><path d="M 1,1 l 9,9 M 10,1 l -9,9" class="arrowMarkerPath" style="stroke-width: 2; stroke-dasharray: 1, 0;"></path></marker><g class="root"><g class="clusters"><g class="cluster" id="Data" data-look="classic"><rect style="" x="8" y="449" width="807.609375" height="136.0462188720703"></rect><g class="cluster-label" transform="translate(379.234375, 449)"><foreignObject width="65.140625" height="24"><div xmlns="http://www.w3.org/1999/xhtml" style="display: table-cell; white-space: nowrap; line-height: 1.5; max-width: 200px; text-align: center;"><span class="nodeLabel"><p>Data Tier</p></span></div></foreignObject></g></g><g class="cluster" id="K8s" data-look="classic"><rect style="" x="1073" y="216" width="634.453125" height="498.0462188720703"></rect><g class="cluster-label" transform="translate(1321.34375, 216)"><foreignObject width="137.765625" height="24"><div xmlns="http://www.w3.org/1999/xhtml" style="display: table-cell; white-space: nowrap; line-height: 1.5; max-width: 200px; text-align: center;"><span class="nodeLabel"><p>Kubernetes Cluster</p></span></div></foreignObject></g></g></g><g class="edgePaths"><path d="M1397.641,62L1397.641,66.167C1397.641,70.333,1397.641,78.667,1397.641,86.333C1397.641,94,1397.641,101,1397.641,104.5L1397.641,108" id="L_cdn_lb_0" class="edge-thickness-normal edge-pattern-solid edge-thickness-normal edge-pattern-solid flowchart-link" style=";" data-edge="true" data-et="edge" data-id="L_cdn_lb_0" data-points="W3sieCI6MTM5Ny42NDA2MjUsInkiOjYyfSx7IngiOjEzOTcuNjQwNjI1LCJ5Ijo4N30seyJ4IjoxMzk3LjY0MDYyNSwieSI6MTEyfV0=" marker-end="url(#container_flowchart-v2-pointEnd)"></path><path d="M1397.641,166L1397.641,170.167C1397.641,174.333,1397.641,182.667,1397.641,191C1397.641,199.333,1397.641,207.667,1397.641,215.333C1397.641,223,1397.641,230,1397.641,233.5L1397.641,237" id="L_lb_gw_0" class="edge-thickness-normal edge-pattern-solid edge-thickness-normal edge-pattern-solid flowchart-link" style=";" data-edge="true" data-et="edge" data-id="L_lb_gw_0" data-points="W3sieCI6MTM5Ny42NDA2MjUsInkiOjE2Nn0seyJ4IjoxMzk3LjY0MDYyNSwieSI6MTkxfSx7IngiOjEzOTcuNjQwNjI1LCJ5IjoyMTZ9LHsieCI6MTM5Ny42NDA2MjUsInkiOjI0MX1d" marker-end="url(#container_flowchart-v2-pointEnd)"></path><path d="M1291.113,295L1274.674,299.167C1258.234,303.333,1225.355,311.667,1208.916,319.333C1192.477,327,1192.477,334,1192.477,337.5L1192.477,341" id="L_gw_inv_0" class="edge-thickness-normal edge-pattern-solid edge-thickness-normal edge-pattern-solid flowchart-link" style=";" data-edge="true" data-et="edge" data-id="L_gw_inv_0" data-points="W3sieCI6MTI5MS4xMTMxMzEwMDk2MTU1LCJ5IjoyOTV9LHsieCI6MTE5Mi40NzY1NjI1LCJ5IjozMjB9LHsieCI6MTE5Mi40NzY1NjI1LCJ5IjozNDV9XQ==" marker-end="url(#container_flowchart-v2-pointEnd)"></path><path d="M1397.641,295L1397.641,299.167C1397.641,303.333,1397.641,311.667,1397.641,319.333C1397.641,327,1397.641,334,1397.641,337.5L1397.641,341" id="L_gw_ord_0" class="edge-thickness-normal edge-pattern-solid edge-thickness-normal edge-pattern-solid flowchart-link" style=";" data-edge="true" data-et="edge" data-id="L_gw_ord_0" data-points="W3sieCI6MTM5Ny42NDA2MjUsInkiOjI5NX0seyJ4IjoxMzk3LjY0MDYyNSwieSI6MzIwfSx7IngiOjEzOTcuNjQwNjI1LCJ5IjozNDV9XQ==" marker-end="url(#container_flowchart-v2-pointEnd)"></path><path d="M1500.319,295L1516.164,299.167C1532.009,303.333,1563.7,311.667,1579.545,319.333C1595.391,327,1595.391,334,1595.391,337.5L1595.391,341" id="L_gw_cat_0" class="edge-thickness-normal edge-pattern-solid edge-thickness-normal edge-pattern-solid flowchart-link" style=";" data-edge="true" data-et="edge" data-id="L_gw_cat_0" data-points="W3sieCI6MTUwMC4zMTg1MDk2MTUzODQ1LCJ5IjoyOTV9LHsieCI6MTU5NS4zOTA2MjUsInkiOjMyMH0seyJ4IjoxNTk1LjM5MDYyNSwieSI6MzQ1fV0=" marker-end="url(#container_flowchart-v2-pointEnd)"></path><path d="M1166.651,399L1162.665,403.167C1158.68,407.333,1150.709,415.667,1146.724,424C1142.738,432.333,1142.738,440.667,995.176,454.926C847.614,469.185,552.49,489.371,404.928,499.463L257.366,509.556" id="L_inv_pg_0" class="edge-thickness-normal edge-pattern-solid edge-thickness-normal edge-pattern-solid flowchart-link" style=";" data-edge="true" data-et="edge" data-id="L_inv_pg_0" data-points="W3sieCI6MTE2Ni42NTA5MTY0NjYzNDYyLCJ5IjozOTl9LHsieCI6MTE0Mi43MzgyODEyNSwieSI6NDI0fSx7IngiOjExNDIuNzM4MjgxMjUsInkiOjQ0OX0seyJ4IjoyNTMuMzc1LCJ5Ijo1MDkuODI4NzI0ODM2Nzc5MjZ9XQ==" marker-end="url(#container_flowchart-v2-pointEnd)"></path><path d="M1240.548,399L1247.966,403.167C1255.385,407.333,1270.222,415.667,1277.64,424C1285.059,432.333,1285.059,440.667,1140.195,455.458C995.332,470.25,705.606,491.501,560.743,502.126L415.88,512.751" id="L_inv_redis_0" class="edge-thickness-normal edge-pattern-solid edge-thickness-normal edge-pattern-solid flowchart-link" style=";" data-edge="true" data-et="edge" data-id="L_inv_redis_0" data-points="W3sieCI6MTI0MC41NDgwMDE4MDI4ODQ1LCJ5IjozOTl9LHsieCI6MTI4NS4wNTg1OTM3NSwieSI6NDI0fSx7IngiOjEyODUuMDU4NTkzNzUsInkiOjQ0OX0seyJ4Ijo0MTEuODkwNjI1LCJ5Ijo1MTMuMDQzNTA3ODQxOTYxNn1d" marker-end="url(#container_flowchart-v2-pointEnd)"></path><path d="M1326.953,394.645L1311.681,399.538C1296.409,404.43,1265.865,414.215,1250.592,423.274C1235.32,432.333,1235.32,440.667,1072.328,455.032C909.336,469.397,583.352,489.794,420.359,499.993L257.367,510.192" id="L_ord_pg_0" class="edge-thickness-normal edge-pattern-solid edge-thickness-normal edge-pattern-solid flowchart-link" style=";" data-edge="true" data-et="edge" data-id="L_ord_pg_0" data-points="W3sieCI6MTMyNi45NTMxMjUsInkiOjM5NC42NDUwNDAxODg2NzAyfSx7IngiOjEyMzUuMzIwMzEyNSwieSI6NDI0fSx7IngiOjEyMzUuMzIwMzEyNSwieSI6NDQ5fSx7IngiOjI1My4zNzUsInkiOjUxMC40NDE0MTA1NDc0MjQ5NH1d" marker-end="url(#container_flowchart-v2-pointEnd)"></path><path d="M1397.641,399L1397.641,403.167C1397.641,407.333,1397.641,415.667,1397.641,424C1397.641,432.333,1397.641,440.667,1268.465,455.186C1139.289,469.706,880.937,490.412,751.761,500.766L622.585,511.119" id="L_ord_kafka_0" class="edge-thickness-normal edge-pattern-solid edge-thickness-normal edge-pattern-solid flowchart-link" style=";" data-edge="true" data-et="edge" data-id="L_ord_kafka_0" data-points="W3sieCI6MTM5Ny42NDA2MjUsInkiOjM5OX0seyJ4IjoxMzk3LjY0MDYyNSwieSI6NDI0fSx7IngiOjEzOTcuNjQwNjI1LCJ5Ijo0NDl9LHsieCI6NjE4LjU5ODIwNDExNTE3MjgsInkiOjUxMS40MzgyNjc2NjYzODA5fV0=" marker-end="url(#container_flowchart-v2-pointEnd)"></path><path d="M1468.328,386.484L1498.844,392.737C1529.359,398.989,1590.391,411.495,1620.906,421.914C1651.422,432.333,1651.422,440.667,1549.848,454.604C1448.275,468.542,1245.128,488.085,1143.555,497.856L1041.982,507.627" id="L_ord_psp_0" class="edge-thickness-normal edge-pattern-solid edge-thickness-normal edge-pattern-solid flowchart-link" style=";" data-edge="true" data-et="edge" data-id="L_ord_psp_0" data-points="W3sieCI6MTQ2OC4zMjgxMjUsInkiOjM4Ni40ODM5MzA1NTA0MjQ4fSx7IngiOjE2NTEuNDIxODc1LCJ5Ijo0MjR9LHsieCI6MTY1MS40MjE4NzUsInkiOjQ0OX0seyJ4IjoxMDM4LCJ5Ijo1MDguMDA5ODI3NjA4NzgzNTV9XQ==" marker-end="url(#container_flowchart-v2-pointEnd)"></path><path d="M1595.391,399L1595.391,403.167C1595.391,407.333,1595.391,415.667,1595.391,424C1595.391,432.333,1595.391,440.667,1460.258,455.405C1325.126,470.143,1054.862,491.286,919.729,501.858L784.597,512.429" id="L_cat_es_0" class="edge-thickness-normal edge-pattern-solid edge-thickness-normal edge-pattern-solid flowchart-link" style=";" data-edge="true" data-et="edge" data-id="L_cat_es_0" data-points="W3sieCI6MTU5NS4zOTA2MjUsInkiOjM5OX0seyJ4IjoxNTk1LjM5MDYyNSwieSI6NDI0fSx7IngiOjE1OTUuMzkwNjI1LCJ5Ijo0NDl9LHsieCI6NzgwLjYwOTM3NSwieSI6NTEyLjc0MTE4MjQ5NDc3MDZ9XQ==" marker-end="url(#container_flowchart-v2-pointEnd)"></path><path d="M542.016,537.023L541.932,545.027C541.849,553.031,541.682,569.039,683.051,581.209C824.419,593.38,1107.323,601.713,1248.775,609.38C1390.227,617.046,1390.227,624.046,1390.227,627.546L1390.227,631.046" id="L_kafka_notif_0" class="edge-thickness-normal edge-pattern-solid edge-thickness-normal edge-pattern-solid flowchart-link" style=";" data-edge="true" data-et="edge" data-id="L_kafka_notif_0" data-points="W3sieCI6NTQyLjAxNTYyNSwieSI6NTM3LjAyMzEwOTQzNjAzNTJ9LHsieCI6NTQxLjUxNTYyNSwieSI6NTg1LjA0NjIxODg3MjA3MDN9LHsieCI6MTM5MC4yMjY1NjI1LCJ5Ijo2MTAuMDQ2MjE4ODcyMDcwM30seyJ4IjoxMzkwLjIyNjU2MjUsInkiOjYzNS4wNDYyMTg4NzIwNzAzfV0=" marker-end="url(#container_flowchart-v2-pointEnd)"></path></g><g class="edgeLabels"><g class="edgeLabel"><g class="label" data-id="L_cdn_lb_0" transform="translate(0, 0)"><foreignObject width="0" height="0"><div xmlns="http://www.w3.org/1999/xhtml" class="labelBkg" style="display: table-cell; white-space: nowrap; line-height: 1.5; max-width: 200px; text-align: center;"><span class="edgeLabel"></span></div></foreignObject></g></g><g class="edgeLabel"><g class="label" data-id="L_lb_gw_0" transform="translate(0, 0)"><foreignObject width="0" height="0"><div xmlns="http://www.w3.org/1999/xhtml" class="labelBkg" style="display: table-cell; white-space: nowrap; line-height: 1.5; max-width: 200px; text-align: center;"><span class="edgeLabel"></span></div></foreignObject></g></g><g class="edgeLabel"><g class="label" data-id="L_gw_inv_0" transform="translate(0, 0)"><foreignObject width="0" height="0"><div xmlns="http://www.w3.org/1999/xhtml" class="labelBkg" style="display: table-cell; white-space: nowrap; line-height: 1.5; max-width: 200px; text-align: center;"><span class="edgeLabel"></span></div></foreignObject></g></g><g class="edgeLabel"><g class="label" data-id="L_gw_ord_0" transform="translate(0, 0)"><foreignObject width="0" height="0"><div xmlns="http://www.w3.org/1999/xhtml" class="labelBkg" style="display: table-cell; white-space: nowrap; line-height: 1.5; max-width: 200px; text-align: center;"><span class="edgeLabel"></span></div></foreignObject></g></g><g class="edgeLabel"><g class="label" data-id="L_gw_cat_0" transform="translate(0, 0)"><foreignObject width="0" height="0"><div xmlns="http://www.w3.org/1999/xhtml" class="labelBkg" style="display: table-cell; white-space: nowrap; line-height: 1.5; max-width: 200px; text-align: center;"><span class="edgeLabel"></span></div></foreignObject></g></g><g class="edgeLabel"><g class="label" data-id="L_inv_pg_0" transform="translate(0, 0)"><foreignObject width="0" height="0"><div xmlns="http://www.w3.org/1999/xhtml" class="labelBkg" style="display: table-cell; white-space: nowrap; line-height: 1.5; max-width: 200px; text-align: center;"><span class="edgeLabel"></span></div></foreignObject></g></g><g class="edgeLabel"><g class="label" data-id="L_inv_redis_0" transform="translate(0, 0)"><foreignObject width="0" height="0"><div xmlns="http://www.w3.org/1999/xhtml" class="labelBkg" style="display: table-cell; white-space: nowrap; line-height: 1.5; max-width: 200px; text-align: center;"><span class="edgeLabel"></span></div></foreignObject></g></g><g class="edgeLabel"><g class="label" data-id="L_ord_pg_0" transform="translate(0, 0)"><foreignObject width="0" height="0"><div xmlns="http://www.w3.org/1999/xhtml" class="labelBkg" style="display: table-cell; white-space: nowrap; line-height: 1.5; max-width: 200px; text-align: center;"><span class="edgeLabel"></span></div></foreignObject></g></g><g class="edgeLabel"><g class="label" data-id="L_ord_kafka_0" transform="translate(0, 0)"><foreignObject width="0" height="0"><div xmlns="http://www.w3.org/1999/xhtml" class="labelBkg" style="display: table-cell; white-space: nowrap; line-height: 1.5; max-width: 200px; text-align: center;"><span class="edgeLabel"></span></div></foreignObject></g></g><g class="edgeLabel"><g class="label" data-id="L_ord_psp_0" transform="translate(0, 0)"><foreignObject width="0" height="0"><div xmlns="http://www.w3.org/1999/xhtml" class="labelBkg" style="display: table-cell; white-space: nowrap; line-height: 1.5; max-width: 200px; text-align: center;"><span class="edgeLabel"></span></div></foreignObject></g></g><g class="edgeLabel"><g class="label" data-id="L_cat_es_0" transform="translate(0, 0)"><foreignObject width="0" height="0"><div xmlns="http://www.w3.org/1999/xhtml" class="labelBkg" style="display: table-cell; white-space: nowrap; line-height: 1.5; max-width: 200px; text-align: center;"><span class="edgeLabel"></span></div></foreignObject></g></g><g class="edgeLabel"><g class="label" data-id="L_kafka_notif_0" transform="translate(0, 0)"><foreignObject width="0" height="0"><div xmlns="http://www.w3.org/1999/xhtml" class="labelBkg" style="display: table-cell; white-space: nowrap; line-height: 1.5; max-width: 200px; text-align: center;"><span class="edgeLabel"></span></div></foreignObject></g></g></g><g class="nodes"><g class="node default" id="flowchart-cdn-0" transform="translate(1397.640625, 35)"><rect class="basic label-container" style="" x="-70.796875" y="-27" width="141.59375" height="54"></rect><g class="label" style="" transform="translate(-40.796875, -12)"><rect></rect><foreignObject width="81.59375" height="24"><div xmlns="http://www.w3.org/1999/xhtml" style="display: table-cell; white-space: nowrap; line-height: 1.5; max-width: 200px; text-align: center;"><span class="nodeLabel"><p>CDN / Edge</p></span></div></foreignObject></g></g><g class="node default" id="flowchart-lb-1" transform="translate(1397.640625, 139)"><rect class="basic label-container" style="" x="-81.2265625" y="-27" width="162.453125" height="54"></rect><g class="label" style="" transform="translate(-51.2265625, -12)"><rect></rect><foreignObject width="102.453125" height="24"><div xmlns="http://www.w3.org/1999/xhtml" style="display: table-cell; white-space: nowrap; line-height: 1.5; max-width: 200px; text-align: center;"><span class="nodeLabel"><p>Load Balancer</p></span></div></foreignObject></g></g><g class="node default" id="flowchart-gw-3" transform="translate(1397.640625, 268)"><rect class="basic label-container" style="" x="-118.578125" y="-27" width="237.15625" height="54"></rect><g class="label" style="" transform="translate(-88.578125, -12)"><rect></rect><foreignObject width="177.15625" height="24"><div xmlns="http://www.w3.org/1999/xhtml" style="display: table-cell; white-space: nowrap; line-height: 1.5; max-width: 200px; text-align: center;"><span class="nodeLabel"><p>Gateway + Waiting Room</p></span></div></foreignObject></g></g><g class="node default" id="flowchart-inv-5" transform="translate(1192.4765625, 372)"><rect class="basic label-container" style="" x="-84.4765625" y="-27" width="168.953125" height="54"></rect><g class="label" style="" transform="translate(-54.4765625, -12)"><rect></rect><foreignObject width="108.953125" height="24"><div xmlns="http://www.w3.org/1999/xhtml" style="display: table-cell; white-space: nowrap; line-height: 1.5; max-width: 200px; text-align: center;"><span class="nodeLabel"><p>Inventory pods</p></span></div></foreignObject></g></g><g class="node default" id="flowchart-ord-6" transform="translate(1397.640625, 372)"><rect class="basic label-container" style="" x="-70.6875" y="-27" width="141.375" height="54"></rect><g class="label" style="" transform="translate(-40.6875, -12)"><rect></rect><foreignObject width="81.375" height="24"><div xmlns="http://www.w3.org/1999/xhtml" style="display: table-cell; white-space: nowrap; line-height: 1.5; max-width: 200px; text-align: center;"><span class="nodeLabel"><p>Order pods</p></span></div></foreignObject></g></g><g class="node default" id="flowchart-cat-7" transform="translate(1595.390625, 372)"><rect class="basic label-container" style="" x="-77.0625" y="-27" width="154.125" height="54"></rect><g class="label" style="" transform="translate(-47.0625, -12)"><rect></rect><foreignObject width="94.125" height="24"><div xmlns="http://www.w3.org/1999/xhtml" style="display: table-cell; white-space: nowrap; line-height: 1.5; max-width: 200px; text-align: center;"><span class="nodeLabel"><p>Catalog pods</p></span></div></foreignObject></g></g><g class="node default" id="flowchart-notif-8" transform="translate(1390.2265625, 662.0462188720703)"><rect class="basic label-container" style="" x="-103.1875" y="-27" width="206.375" height="54"></rect><g class="label" style="" transform="translate(-73.1875, -12)"><rect></rect><foreignObject width="146.375" height="24"><div xmlns="http://www.w3.org/1999/xhtml" style="display: table-cell; white-space: nowrap; line-height: 1.5; max-width: 200px; text-align: center;"><span class="nodeLabel"><p>Notification workers</p></span></div></foreignObject></g></g><g class="node default" id="flowchart-pg-9" transform="translate(148.1875, 517.0231094360352)"><path d="M0,15.682072307118897 a105.1875,15.682072307118897 0,0,0 210.375,0 a105.1875,15.682072307118897 0,0,0 -210.375,0 l0,54.6820723071189 a105.1875,15.682072307118897 0,0,0 210.375,0 l0,-54.6820723071189" class="basic label-container" style="" transform="translate(-105.1875, -43.023108460678344)"></path><g class="label" style="" transform="translate(-97.6875, -2)"><rect></rect><foreignObject width="195.375" height="24"><div xmlns="http://www.w3.org/1999/xhtml" style="display: table-cell; white-space: nowrap; line-height: 1.5; max-width: 200px; text-align: center;"><span class="nodeLabel"><p>Postgres primary + replicas</p></span></div></foreignObject></g></g><g class="node default" id="flowchart-redis-10" transform="translate(357.6328125, 517.0231094360352)"><path d="M0,11.617597858815659 a54.2578125,11.617597858815659 0,0,0 108.515625,0 a54.2578125,11.617597858815659 0,0,0 -108.515625,0 l0,50.61759785881566 a54.2578125,11.617597858815659 0,0,0 108.515625,0 l0,-50.61759785881566" class="basic label-container" style="" transform="translate(-54.2578125, -36.926396788223485)"></path><g class="label" style="" transform="translate(-46.7578125, -2)"><rect></rect><foreignObject width="93.515625" height="24"><div xmlns="http://www.w3.org/1999/xhtml" style="display: table-cell; white-space: nowrap; line-height: 1.5; max-width: 200px; text-align: center;"><span class="nodeLabel"><p>Redis cluster</p></span></div></foreignObject></g></g><g class="node default" id="flowchart-kafka-11" transform="translate(541.515625, 517.0231094360352)"><g class="basic label-container"><path d="M-69.875 -19.5 C-54.34599689762724 -19.5, -38.816993795254476 -19.5, 0 -19.5 C25.76619120968117 -19.5, 51.53238241936234 -19.5, 69.875 -19.5 C72.3008938861466 -14.648212227706809, 74.72678777229319 -9.796424455413618, 79.625 0 C76.90277870699236 5.444442586015272, 74.18055741398473 10.888885172030545, 69.875 19.5 C52.18465044864513 19.5, 34.49430089729025 19.5, 0 19.5 C-14.35686495494863 19.5, -28.71372990989726 19.5, -69.875 19.5 C-73.0668065931497 13.116386813700576, -76.25861318629943 6.73277362740115, -79.625 0 C-77.6046127385457 -4.0407745229086, -75.5842254770914 -8.0815490458172, -69.875 -19.5" stroke="none" stroke-width="0" fill="#ECECFF" style=""></path><path d="M-69.875 -19.5 C-54.190699149167244 -19.5, -38.506398298334496 -19.5, 0 -19.5 M-69.875 -19.5 C-53.47812972647978 -19.5, -37.08125945295956 -19.5, 0 -19.5 M0 -19.5 C23.782306068933313 -19.5, 47.564612137866625 -19.5, 69.875 -19.5 M0 -19.5 C27.764887837225956 -19.5, 55.52977567445191 -19.5, 69.875 -19.5 M69.875 -19.5 C73.05314592969754 -13.143708140604941, 76.23129185939506 -6.787416281209882, 79.625 0 M69.875 -19.5 C72.88715260655093 -13.475694786898156, 75.89930521310184 -7.4513895737963125, 79.625 0 M79.625 0 C76.26286661516585 6.724266769668306, 72.9007332303317 13.448533539336612, 69.875 19.5 M79.625 0 C77.42084436527763 4.408311269444748, 75.21668873055525 8.816622538889495, 69.875 19.5 M69.875 19.5 C43.30003857409353 19.5, 16.725077148187054 19.5, 0 19.5 M69.875 19.5 C52.47380646955975 19.5, 35.07261293911949 19.5, 0 19.5 M0 19.5 C-25.847317269231844 19.5, -51.69463453846369 19.5, -69.875 19.5 M0 19.5 C-22.2237196261585 19.5, -44.447439252317 19.5, -69.875 19.5 M-69.875 19.5 C-73.75612265343355 11.737754693132914, -77.63724530686709 3.975509386265827, -79.625 0 M-69.875 19.5 C-72.68187895049626 13.886242099007482, -75.48875790099252 8.272484198014963, -79.625 0 M-79.625 0 C-76.99861771268675 -5.252764574626486, -74.37223542537352 -10.505529149252972, -69.875 -19.5 M-79.625 0 C-76.59763810920599 -6.054723781588015, -73.57027621841199 -12.10944756317603, -69.875 -19.5" stroke="#9370DB" stroke-width="1.3" fill="none" stroke-dasharray="0 0" style=""></path></g><g class="label" style="" transform="translate(-49.5, -12)"><rect></rect><foreignObject width="99" height="24"><div xmlns="http://www.w3.org/1999/xhtml" style="display: table-cell; white-space: nowrap; line-height: 1.5; max-width: 200px; text-align: center;"><span class="nodeLabel"><p>Kafka brokers</p></span></div></foreignObject></g></g><g class="node default" id="flowchart-es-12" transform="translate(725.875, 517.0231094360352)"><path d="M0,11.671997867519659 a54.734375,11.671997867519659 0,0,0 109.46875,0 a54.734375,11.671997867519659 0,0,0 -109.46875,0 l0,50.67199786751966 a54.734375,11.671997867519659 0,0,0 109.46875,0 l0,-50.67199786751966" class="basic label-container" style="" transform="translate(-54.734375, -37.00799680127949)"></path><g class="label" style="" transform="translate(-47.234375, -2)"><rect></rect><foreignObject width="94.46875" height="24"><div xmlns="http://www.w3.org/1999/xhtml" style="display: table-cell; white-space: nowrap; line-height: 1.5; max-width: 200px; text-align: center;"><span class="nodeLabel"><p>Elasticsearch</p></span></div></foreignObject></g></g><g class="node default" id="flowchart-psp-13" transform="translate(944.3046875, 517.0231094360352)"><rect class="basic label-container" style="" x="-93.6953125" y="-27" width="187.390625" height="54"></rect><g class="label" style="" transform="translate(-63.6953125, -12)"><rect></rect><foreignObject width="127.390625" height="24"><div xmlns="http://www.w3.org/1999/xhtml" style="display: table-cell; white-space: nowrap; line-height: 1.5; max-width: 200px; text-align: center;"><span class="nodeLabel"><p>Payment Provider</p></span></div></foreignObject></g></g></g></g></g></svg>